name Walk1.mot
datacolumns 19
datarows 30
range 1.47500000 1.62000000
endheader

                time	   L_ground_force_vx	   L_ground_force_vy	   L_ground_force_vz	   L_ground_force_px	   L_ground_force_py	   L_ground_force_pz	   R_ground_force_vx	   R_ground_force_vy	   R_ground_force_vz	   R_ground_force_px	   R_ground_force_py	   R_ground_force_pz	   L_ground_torque_x	   L_ground_torque_y	   L_ground_torque_z	   R_ground_torque_x	   R_ground_torque_y	   R_ground_torque_z	
          1.47500000	          0.00000000	          0.00000000	         -0.00000000	         -0.00000000	          0.00000000	         -0.00000000	         23.55045030	        691.02183183	        -12.38999528	         -0.10643641	          0.00000000	          0.36097231	          0.00000000	         -0.00000000	          0.00000000	          0.00000000	          1.21813907	          0.00000000	
          1.48000000	         -0.00000000	         -0.00000000	          0.00000000	         -0.00000000	          0.00000000	         -0.00000000	         25.85385773	        697.57168232	        -12.90089450	         -0.10505630	          0.00000000	          0.36107702	          0.00000000	         -0.00000000	          0.00000000	          0.00000000	          1.09881297	          0.00000000	
          1.48500000	         -0.00000000	         -0.00000000	          0.00000000	         -0.00000000	          0.00000000	         -0.00000000	         28.11709149	        703.86026289	        -13.53076554	         -0.10352343	          0.00000000	          0.36087427	          0.00000000	          0.00000000	          0.00000000	          0.00000000	          1.05633577	          0.00000000	
          1.49000000	          0.00000000	         -0.00000000	          0.00000000	          0.00000000	          0.00000000	          0.00000000	         30.27152100	        710.06612469	        -14.40837392	         -0.10187690	          0.00000000	          0.36051767	          0.00000000	          0.00000000	          0.00000000	          0.00000000	          1.00820602	          0.00000000	
          1.49500000	          0.00000000	          0.00000000	         -0.00000000	          0.00000000	          0.00000000	          0.00000000	         32.52960057	        716.02190660	        -15.53370815	         -0.10035009	          0.00000000	          0.36022901	          0.00000000	          0.00000000	          0.00000000	          0.00000000	          0.91701406	          0.00000000	
          1.50000000	          0.00000000	          0.00000000	         -0.00000000	         -0.00000000	          0.00000000	         -0.00000000	         35.43304459	        721.84744123	        -16.49042125	         -0.09903880	          0.00000000	          0.35988636	          0.00000000	         -0.00000000	          0.00000000	          0.00000000	          0.81393908	          0.00000000	
          1.50500000	         -0.00000000	         -0.00000000	         -0.00000000	         -0.00000000	          0.00000000	         -0.00000000	         38.68206129	        726.73344987	        -17.17518247	         -0.09766828	          0.00000000	          0.35976587	          0.00000000	         -0.00000000	          0.00000000	          0.00000000	          0.69465519	          0.00000000	
          1.51000000	         -0.00000000	         -0.00000004	          0.00000000	         -0.00000000	          0.00000000	         -0.00000000	         41.55574582	        730.93714460	        -17.94592351	         -0.09616258	          0.00000000	          0.35961036	          0.00000000	          0.00000000	          0.00000000	          0.00000000	          0.60620636	          0.00000000	
          1.51500000	         -0.00000001	         -0.00000008	          0.00000000	          0.00000000	          0.00000000	          0.00000000	         44.23236215	        734.83712137	        -18.81775154	         -0.09459208	          0.00000000	          0.35931229	          0.00000000	          0.00000000	          0.00000000	          0.00000000	          0.50035973	          0.00000000	
          1.52000000	          0.00000003	          0.00000019	          0.00000000	          0.00000000	          0.00000000	          0.00000000	         47.15631587	        738.34174655	        -19.38684766	         -0.09315243	          0.00000000	          0.35893252	          0.00000000	          0.00000000	          0.00000000	          0.00000000	          0.40851610	          0.00000000	
          1.52500000	          0.00000013	          0.00000124	         -0.00000003	          0.00000000	          0.00000000	          0.00000000	         50.34291468	        741.66459549	        -19.46792154	         -0.09184663	          0.00000000	          0.35849407	          0.00000000	         -0.00000000	          0.00000000	          0.00000000	          0.44500126	          0.00000000	
          1.53000000	          0.00000007	          0.00000152	         -0.00000013	         -0.00000001	          0.00000000	         -0.00000001	         53.59756993	        744.99646206	        -19.25495431	         -0.09057373	          0.00000000	          0.35799995	          0.00000000	         -0.00000000	          0.00000000	          0.00000000	          0.55570126	          0.00000000	
          1.53500000	         -0.00000103	         -0.00000754	         -0.00000003	         -0.00000003	          0.00000000	         -0.00000003	         56.92624388	        748.13465679	        -18.94037110	         -0.08930852	          0.00000000	          0.35751051	          0.00000000	         -0.00000000	          0.00000000	          0.00000000	          0.60084585	          0.00000000	
          1.54000000	         -0.00000332	         -0.00003353	          0.00000108	         -0.00000003	          0.00000000	         -0.00000002	         60.54240222	        751.00546524	        -18.47139403	         -0.08803186	          0.00000000	          0.35703543	          0.00000000	          0.00000002	          0.00000000	          0.00000000	          0.63323657	          0.00000000	
          1.54500000	          0.00000083	         -0.00001753	          0.00000311	          0.00000024	          0.00000000	          0.00000022	         64.51993709	        753.42080508	        -17.79237545	         -0.08697924	          0.00000000	          0.35669699	          0.00000000	          0.00000009	          0.00000000	          0.00000000	          0.62363909	          0.00000000	
          1.55000000	          0.00003278	          0.00026347	         -0.00000183	          0.00000091	          0.00000000	          0.00000076	         68.67574214	        755.78025616	        -16.82198441	         -0.08635948	          0.00000000	          0.35634718	          0.00000000	          0.00000007	          0.00000000	          0.00000000	          0.58042844	          0.00000000	
          1.55500000	          0.00007744	          0.00084530	         -0.00003343	          0.00000016	          0.00000000	         -0.00000004	         72.76837769	        758.55836068	        -15.53925529	         -0.08595995	          0.00000000	          0.35568171	          0.00000000	         -0.00000060	          0.00000000	          0.00000000	          0.61841344	          0.00000000	
          1.56000000	         -0.00010111	         -0.00023448	         -0.00006986	         -0.00000793	          0.00000000	         -0.00000713	         76.66833753	        760.89935756	        -14.15169736	         -0.08541845	          0.00000000	          0.35500837	          0.00000000	         -0.00000224	          0.00000000	          0.00000000	          0.66086079	          0.00000000	
          1.56500000	         -0.00097606	         -0.00839832	          0.00012680	         -0.00002208	          0.00000000	         -0.00001813	         80.39193659	        762.41553043	        -12.72200891	         -0.08484233	          0.00000000	          0.35455953	          0.00000000	         -0.00000028	          0.00000000	          0.00000000	          0.74082455	          0.00000000	
          1.57000000	         -0.00160113	         -0.01963269	          0.00097283	          0.00001578	          0.00000000	          0.00001862	         84.20249678	        763.84852085	        -11.43801826	         -0.08434522	          0.00000000	          0.35393432	          0.00000000	          0.00001991	          0.00000000	          0.00000000	          0.84677940	          0.00000000	
          1.57500000	          0.00483999	          0.02644809	          0.00135593	          0.00024443	          0.00000000	          0.00021542	         88.10451560	        764.70905107	        -10.62817976	         -0.08385412	          0.00000000	          0.35351115	          0.00000000	          0.00005423	          0.00000000	          0.00000000	          0.85607225	          0.00000000	
          1.58000000	          0.02731498	          0.24955781	         -0.00544653	          0.00048884	          0.00000000	          0.00038738	         92.02817218	        764.40556298	        -10.28267703	         -0.08336941	          0.00000000	          0.35348140	          0.00000000	         -0.00004274	          0.00000000	          0.00000000	          0.78835776	          0.00000000	
          1.58500000	          0.02627917	          0.40386782	         -0.02662932	         -0.00098397	          0.00000000	         -0.00097997	         96.01951641	        763.09452063	        -10.32530964	         -0.08296563	          0.00000000	          0.35346365	          0.00000000	         -0.00061068	          0.00000000	          0.00000000	          0.67910783	          0.00000000	
          1.59000000	         -0.18352718	         -1.25176840	         -0.01891028	         -0.00705833	          0.00000000	         -0.00611291	         99.95002374	        760.40836112	        -10.70764756	         -0.08269886	          0.00000000	          0.35327496	          0.00000000	         -0.00119082	          0.00000000	          0.00000000	          0.52012544	          0.00000000	
          1.59500000	         -0.71842743	         -6.97017599	          0.19633067	         -0.00924850	          0.00000000	         -0.00683202	        103.86900546	        755.94241116	        -11.31197307	         -0.08249166	          0.00000000	          0.35295346	          0.00000000	          0.00253757	          0.00000000	          0.00000000	          0.34526787	          0.00000000	
          1.60000000	         -0.17301702	         -6.55186721	          0.68374427	          0.04104636	          0.00000000	          0.03860455	        107.91230347	        749.41871790	        -11.89688779	         -0.08217594	          0.00000000	          0.35282718	          0.00000000	          0.01755901	          0.00000000	          0.00000000	          0.19505330	          0.00000000	
          1.60500000	          6.18648756	         47.30868526	         -0.03844217	          0.19306703	          0.00000000	          0.16443362	        112.09185962	        741.17537319	        -12.34009078	         -0.08175432	          0.00000000	          0.35273174	          0.00000000	          0.02282369	          0.00000000	          0.00000000	          0.09078396	          0.00000000	
          1.61000000	         20.80937719	        202.16327955	         -7.07045011	          0.32181470	          0.00000000	          0.25581848	        116.32375357	        731.71411338	        -12.54063146	         -0.08141316	          0.00000000	          0.35238837	          0.00000000	         -0.03152037	          0.00000000	          0.00000000	          0.08603213	          0.00000000	
          1.61500000	         32.16128303	        367.09841931	        -25.75811995	          0.35797669	          0.00000000	          0.27471471	        120.44247149	        720.72383707	        -12.26836799	         -0.08111653	          0.00000000	          0.35210058	          0.00000000	         -0.06492941	          0.00000000	          0.00000000	          0.04616865	          0.00000000	
          1.62000000	         23.12053426	        401.60841524	        -48.44201490	          0.35668143	          0.00000000	          0.27141892	        124.07599145	        706.90331362	        -11.19320984	         -0.08082585	          0.00000000	          0.35199074	          0.00000000	          0.04127319	          0.00000000	          0.00000000	         -0.08665521	          0.00000000	
